<svg xmlns="http://www.w3.org/2000/svg" xmlns:xlink="http://www.w3.org/1999/xlink" width="500" zoomAndPan="magnify" viewBox="0 0 375 374.999991" height="500" preserveAspectRatio="xMidYMid meet" version="1.0"><defs><g/><clipPath id="e866f86669"><path d="M 26 133.675781 L 89 133.675781 L 89 238.675781 L 26 238.675781 Z M 26 133.675781 " clip-rule="nonzero"/></clipPath><clipPath id="ae7db8ea30"><path d="M 158.6875 213.5 L 84.4375 84.894531 L -44.167969 159.144531 L 30.082031 287.75 Z M 158.6875 213.5 " clip-rule="nonzero"/></clipPath><clipPath id="d546e43360"><path d="M 57.074219 161.734375 L 115.675781 161.734375 L 115.675781 173.75 L 57.074219 173.75 Z M 57.074219 161.734375 " clip-rule="nonzero"/></clipPath><clipPath id="a31d8b61c4"><path d="M 51.070312 194.542969 L 109.671875 194.542969 L 109.671875 206.554688 L 51.070312 206.554688 Z M 51.070312 194.542969 " clip-rule="nonzero"/></clipPath><clipPath id="10d2c8a809"><path d="M 79 133.675781 L 141 133.675781 L 141 238.675781 L 79 238.675781 Z M 79 133.675781 " clip-rule="nonzero"/></clipPath><clipPath id="d4d7b1b226"><path d="M 211.285156 213.5 L 137.035156 84.894531 L 8.429688 159.144531 L 82.679688 287.75 Z M 211.285156 213.5 " clip-rule="nonzero"/></clipPath><clipPath id="dd87f79bf1"><path d="M 119 133.675781 L 182 133.675781 L 182 238.675781 L 119 238.675781 Z M 119 133.675781 " clip-rule="nonzero"/></clipPath><clipPath id="e6c7dede17"><path d="M 49.484375 213.5 L 123.734375 84.894531 L 252.339844 159.144531 L 178.089844 287.75 Z M 49.484375 213.5 " clip-rule="nonzero"/></clipPath><clipPath id="13241a0c5a"><path d="M 98.5 133.675781 L 203.5 133.675781 L 203.5 238.675781 L 98.5 238.675781 Z M 98.5 133.675781 " clip-rule="nonzero"/></clipPath><clipPath id="c7e2685ad4"><path d="M 235.003906 249.730469 L 214.59375 102.636719 L 67.503906 123.046875 L 87.914062 270.140625 Z M 235.003906 249.730469 " clip-rule="nonzero"/></clipPath></defs><g clip-path="url(#e866f86669)"><g clip-path="url(#ae7db8ea30)"><path fill="#222222" d="M 87.527344 90.746094 C 87.90625 91.449219 88.140625 92.199219 88.226562 92.992188 C 88.3125 93.785156 88.246094 94.566406 88.027344 95.335938 L 38.527344 280.085938 C 38.429688 280.480469 38.292969 280.867188 38.117188 281.234375 C 37.945312 281.605469 37.734375 281.953125 37.492188 282.28125 C 37.246094 282.609375 36.972656 282.910156 36.667969 283.183594 C 36.363281 283.457031 36.035156 283.699219 35.683594 283.90625 C 35.332031 284.117188 34.964844 284.285156 34.578125 284.421875 C 34.191406 284.554688 33.796875 284.652344 33.390625 284.707031 C 32.984375 284.761719 32.578125 284.777344 32.167969 284.75 C 31.761719 284.726562 31.359375 284.660156 30.964844 284.554688 C 30.570312 284.449219 30.191406 284.304688 29.824219 284.121094 C 29.457031 283.941406 29.113281 283.722656 28.789062 283.472656 C 28.464844 283.222656 28.171875 282.941406 27.902344 282.632812 C 27.636719 282.324219 27.402344 281.992188 27.199219 281.632812 C 27 281.277344 26.835938 280.90625 26.710938 280.515625 C 26.582031 280.128906 26.496094 279.730469 26.449219 279.324219 C 26.402344 278.917969 26.394531 278.511719 26.429688 278.101562 C 26.464844 277.695312 26.539062 277.296875 26.652344 276.902344 L 76.15625 92.15625 C 76.304688 91.554688 76.542969 90.988281 76.867188 90.460938 C 77.1875 89.933594 77.582031 89.460938 78.046875 89.050781 C 78.511719 88.644531 79.023438 88.308594 79.589844 88.054688 C 80.15625 87.800781 80.746094 87.636719 81.359375 87.558594 C 81.972656 87.484375 82.585938 87.5 83.195312 87.609375 C 83.804688 87.71875 84.386719 87.914062 84.9375 88.199219 C 85.488281 88.484375 85.984375 88.84375 86.425781 89.277344 C 86.867188 89.710938 87.234375 90.199219 87.527344 90.746094 Z M 87.527344 90.746094 " fill-opacity="1" fill-rule="nonzero"/></g></g><g clip-path="url(#d546e43360)"><path fill="#222222" d="M 57.074219 161.734375 L 115.6875 161.734375 L 115.6875 173.75 L 57.074219 173.75 Z M 57.074219 161.734375 " fill-opacity="1" fill-rule="nonzero"/></g><g clip-path="url(#a31d8b61c4)"><path fill="#222222" d="M 51.070312 194.542969 L 109.683594 194.542969 L 109.683594 206.554688 L 51.070312 206.554688 Z M 51.070312 194.542969 " fill-opacity="1" fill-rule="nonzero"/></g><g clip-path="url(#10d2c8a809)"><g clip-path="url(#d4d7b1b226)"><path fill="#222222" d="M 140.128906 90.746094 C 140.507812 91.449219 140.738281 92.199219 140.828125 92.992188 C 140.914062 93.785156 140.847656 94.566406 140.628906 95.335938 L 91.125 280.085938 C 91.027344 280.480469 90.894531 280.867188 90.71875 281.234375 C 90.542969 281.605469 90.335938 281.953125 90.089844 282.28125 C 89.847656 282.609375 89.574219 282.910156 89.269531 283.183594 C 88.964844 283.457031 88.636719 283.699219 88.285156 283.90625 C 87.933594 284.117188 87.5625 284.285156 87.175781 284.421875 C 86.792969 284.554688 86.394531 284.652344 85.992188 284.707031 C 85.585938 284.761719 85.179688 284.777344 84.769531 284.75 C 84.363281 284.726562 83.960938 284.660156 83.566406 284.554688 C 83.171875 284.449219 82.789062 284.304688 82.425781 284.121094 C 82.058594 283.941406 81.710938 283.722656 81.390625 283.472656 C 81.066406 283.222656 80.769531 282.941406 80.503906 282.632812 C 80.238281 282.324219 80.003906 281.992188 79.800781 281.632812 C 79.601562 281.277344 79.4375 280.90625 79.3125 280.515625 C 79.183594 280.128906 79.097656 279.730469 79.050781 279.324219 C 79.003906 278.917969 78.996094 278.511719 79.03125 278.101562 C 79.0625 277.695312 79.136719 277.296875 79.253906 276.902344 L 128.753906 92.15625 C 128.90625 91.554688 129.144531 90.988281 129.464844 90.460938 C 129.789062 89.933594 130.183594 89.460938 130.648438 89.050781 C 131.113281 88.644531 131.625 88.308594 132.191406 88.054688 C 132.753906 87.800781 133.34375 87.636719 133.960938 87.558594 C 134.574219 87.484375 135.1875 87.5 135.796875 87.609375 C 136.40625 87.71875 136.988281 87.914062 137.535156 88.199219 C 138.085938 88.484375 138.582031 88.84375 139.023438 89.277344 C 139.46875 89.710938 139.835938 90.199219 140.128906 90.746094 Z M 140.128906 90.746094 " fill-opacity="1" fill-rule="nonzero"/></g></g><g clip-path="url(#dd87f79bf1)"><g clip-path="url(#e6c7dede17)"><path fill="#004aad" d="M 120.644531 90.746094 C 120.265625 91.449219 120.03125 92.199219 119.945312 92.992188 C 119.859375 93.785156 119.925781 94.566406 120.140625 95.335938 L 169.644531 280.085938 C 169.742188 280.480469 169.878906 280.867188 170.054688 281.234375 C 170.226562 281.605469 170.4375 281.953125 170.679688 282.28125 C 170.925781 282.609375 171.199219 282.910156 171.503906 283.183594 C 171.808594 283.457031 172.136719 283.699219 172.488281 283.90625 C 172.839844 284.117188 173.207031 284.285156 173.59375 284.421875 C 173.980469 284.554688 174.375 284.652344 174.78125 284.707031 C 175.1875 284.761719 175.59375 284.777344 176 284.75 C 176.410156 284.726562 176.8125 284.660156 177.207031 284.554688 C 177.601562 284.449219 177.980469 284.304688 178.347656 284.121094 C 178.714844 283.941406 179.058594 283.722656 179.382812 283.472656 C 179.707031 283.222656 180 282.941406 180.269531 282.632812 C 180.535156 282.324219 180.769531 281.992188 180.96875 281.632812 C 181.171875 281.277344 181.335938 280.90625 181.460938 280.515625 C 181.589844 280.128906 181.675781 279.730469 181.722656 279.324219 C 181.769531 278.917969 181.777344 278.511719 181.742188 278.101562 C 181.707031 277.695312 181.632812 277.296875 181.519531 276.902344 L 132.015625 92.15625 C 131.863281 91.554688 131.628906 90.988281 131.304688 90.460938 C 130.984375 89.933594 130.589844 89.460938 130.125 89.050781 C 129.660156 88.644531 129.144531 88.308594 128.582031 88.054688 C 128.015625 87.800781 127.425781 87.636719 126.8125 87.558594 C 126.199219 87.484375 125.585938 87.5 124.976562 87.609375 C 124.367188 87.71875 123.785156 87.914062 123.234375 88.199219 C 122.683594 88.484375 122.1875 88.84375 121.746094 89.277344 C 121.304688 89.710938 120.9375 90.199219 120.644531 90.746094 Z M 120.644531 90.746094 " fill-opacity="1" fill-rule="nonzero"/></g></g><g clip-path="url(#13241a0c5a)"><g clip-path="url(#c7e2685ad4)"><path fill="#004aad" d="M 215.257812 109.222656 C 215.34375 110.015625 215.277344 110.796875 215.058594 111.566406 C 214.84375 112.335938 214.488281 113.035156 213.996094 113.664062 L 98.625 266.214844 C 98.382812 266.546875 98.113281 266.847656 97.8125 267.125 C 97.511719 267.402344 97.1875 267.648438 96.835938 267.859375 C 96.488281 268.074219 96.121094 268.25 95.734375 268.386719 C 95.351562 268.527344 94.957031 268.625 94.550781 268.6875 C 94.148438 268.746094 93.742188 268.765625 93.332031 268.746094 C 92.925781 268.726562 92.523438 268.664062 92.125 268.5625 C 91.730469 268.460938 91.347656 268.324219 90.980469 268.144531 C 90.609375 267.96875 90.261719 267.757812 89.9375 267.507812 C 89.609375 267.261719 89.3125 266.988281 89.039062 266.679688 C 88.769531 266.375 88.53125 266.042969 88.328125 265.691406 C 88.121094 265.335938 87.953125 264.964844 87.820312 264.578125 C 87.691406 264.191406 87.597656 263.792969 87.546875 263.390625 C 87.496094 262.984375 87.484375 262.578125 87.511719 262.167969 C 87.542969 261.761719 87.609375 261.359375 87.71875 260.964844 C 87.828125 260.570312 87.976562 260.191406 88.160156 259.828125 C 88.347656 259.460938 88.566406 259.121094 88.816406 258.796875 L 204.191406 106.25 C 204.558594 105.75 204.988281 105.316406 205.488281 104.945312 C 205.984375 104.578125 206.527344 104.289062 207.109375 104.085938 C 207.695312 103.878906 208.296875 103.765625 208.917969 103.742188 C 209.535156 103.71875 210.144531 103.789062 210.742188 103.949219 C 211.339844 104.109375 211.902344 104.355469 212.425781 104.6875 C 212.949219 105.015625 213.414062 105.417969 213.816406 105.886719 C 214.21875 106.359375 214.542969 106.878906 214.789062 107.445312 C 215.035156 108.015625 215.191406 108.605469 215.257812 109.222656 Z M 215.257812 109.222656 " fill-opacity="1" fill-rule="nonzero"/></g></g><path fill="#222222" d="M 182.996094 190.960938 L 259.078125 190.960938 L 259.078125 194.464844 L 182.996094 194.464844 Z M 182.996094 190.960938 " fill-opacity="1" fill-rule="nonzero"/><g fill="#222222" fill-opacity="1"><g transform="translate(182.995496, 188.861218)"><g><path d="M 27.703125 -28.578125 L 27.703125 0 L 21.046875 0 L 21.046875 -12.078125 L 9.4375 -12.078125 L 9.4375 0 L 2.765625 0 L 2.765625 -28.578125 L 9.4375 -28.578125 L 9.4375 -16.625 L 21.046875 -16.625 L 21.046875 -28.578125 Z M 27.703125 -28.578125 "/></g></g></g><g fill="#222222" fill-opacity="1"><g transform="translate(213.468111, 188.861218)"><g><path d="M 23.296875 -23.3125 L 15.25 -23.3125 L 15.25 0 L 8.625 0 L 8.625 -23.3125 L 0.59375 -23.3125 L 0.59375 -28.578125 L 23.296875 -28.578125 Z M 23.296875 -23.3125 "/></g></g></g><g fill="#222222" fill-opacity="1"><g transform="translate(237.352054, 188.861218)"><g><path d="M 18.546875 -22.765625 C 18.347656 -22.453125 18.140625 -22.21875 17.921875 -22.0625 C 17.710938 -21.90625 17.4375 -21.828125 17.09375 -21.828125 C 16.789062 -21.828125 16.46875 -21.921875 16.125 -22.109375 C 15.78125 -22.296875 15.390625 -22.503906 14.953125 -22.734375 C 14.515625 -22.972656 14.015625 -23.1875 13.453125 -23.375 C 12.890625 -23.570312 12.25 -23.671875 11.53125 -23.671875 C 10.289062 -23.671875 9.363281 -23.40625 8.75 -22.875 C 8.144531 -22.34375 7.84375 -21.628906 7.84375 -20.734375 C 7.84375 -20.148438 8.023438 -19.671875 8.390625 -19.296875 C 8.753906 -18.921875 9.234375 -18.59375 9.828125 -18.3125 C 10.421875 -18.039062 11.097656 -17.789062 11.859375 -17.5625 C 12.628906 -17.332031 13.410156 -17.078125 14.203125 -16.796875 C 15.003906 -16.515625 15.785156 -16.179688 16.546875 -15.796875 C 17.316406 -15.421875 18 -14.9375 18.59375 -14.34375 C 19.1875 -13.757812 19.664062 -13.046875 20.03125 -12.203125 C 20.40625 -11.359375 20.59375 -10.34375 20.59375 -9.15625 C 20.59375 -7.832031 20.363281 -6.59375 19.90625 -5.4375 C 19.445312 -4.289062 18.78125 -3.289062 17.90625 -2.4375 C 17.039062 -1.582031 15.96875 -0.910156 14.6875 -0.421875 C 13.414062 0.0664062 11.972656 0.3125 10.359375 0.3125 C 9.460938 0.3125 8.550781 0.21875 7.625 0.03125 C 6.707031 -0.144531 5.816406 -0.398438 4.953125 -0.734375 C 4.097656 -1.066406 3.289062 -1.460938 2.53125 -1.921875 C 1.769531 -2.378906 1.109375 -2.890625 0.546875 -3.453125 L 2.515625 -6.546875 C 2.671875 -6.773438 2.875 -6.960938 3.125 -7.109375 C 3.382812 -7.253906 3.664062 -7.328125 3.96875 -7.328125 C 4.351562 -7.328125 4.742188 -7.203125 5.140625 -6.953125 C 5.546875 -6.710938 6 -6.441406 6.5 -6.140625 C 7 -5.835938 7.578125 -5.5625 8.234375 -5.3125 C 8.890625 -5.0625 9.660156 -4.9375 10.546875 -4.9375 C 11.753906 -4.9375 12.691406 -5.203125 13.359375 -5.734375 C 14.023438 -6.265625 14.359375 -7.101562 14.359375 -8.25 C 14.359375 -8.914062 14.171875 -9.457031 13.796875 -9.875 C 13.429688 -10.300781 12.953125 -10.648438 12.359375 -10.921875 C 11.765625 -11.191406 11.085938 -11.429688 10.328125 -11.640625 C 9.578125 -11.859375 8.800781 -12.09375 8 -12.34375 C 7.195312 -12.59375 6.414062 -12.90625 5.65625 -13.28125 C 4.90625 -13.65625 4.234375 -14.144531 3.640625 -14.75 C 3.046875 -15.363281 2.5625 -16.125 2.1875 -17.03125 C 1.820312 -17.9375 1.640625 -19.054688 1.640625 -20.390625 C 1.640625 -21.460938 1.851562 -22.507812 2.28125 -23.53125 C 2.71875 -24.550781 3.351562 -25.457031 4.1875 -26.25 C 5.03125 -27.050781 6.054688 -27.691406 7.265625 -28.171875 C 8.484375 -28.648438 9.878906 -28.890625 11.453125 -28.890625 C 12.328125 -28.890625 13.175781 -28.816406 14 -28.671875 C 14.832031 -28.535156 15.617188 -28.332031 16.359375 -28.0625 C 17.109375 -27.800781 17.804688 -27.484375 18.453125 -27.109375 C 19.109375 -26.734375 19.691406 -26.3125 20.203125 -25.84375 Z M 18.546875 -22.765625 "/></g></g></g><path fill="#222222" d="M 259.078125 190.960938 L 358.734375 190.960938 L 358.734375 194.464844 L 259.078125 194.464844 Z M 259.078125 190.960938 " fill-opacity="1" fill-rule="nonzero"/><g fill="#222222" fill-opacity="1"><g transform="translate(259.079116, 188.861218)"><g/></g></g><g fill="#222222" fill-opacity="1"><g transform="translate(268.13854, 188.861218)"><g/></g></g><g fill="#222222" fill-opacity="1"><g transform="translate(277.197965, 188.861218)"><g/></g></g><g fill="#222222" fill-opacity="1"><g transform="translate(286.257389, 188.861218)"><g/></g></g><g fill="#222222" fill-opacity="1"><g transform="translate(295.316814, 188.861218)"><g/></g></g><g fill="#222222" fill-opacity="1"><g transform="translate(304.376238, 188.861218)"><g/></g></g><g fill="#222222" fill-opacity="1"><g transform="translate(313.435663, 188.861218)"><g/></g></g><g fill="#222222" fill-opacity="1"><g transform="translate(322.495088, 188.861218)"><g/></g></g><g fill="#222222" fill-opacity="1"><g transform="translate(331.554512, 188.861218)"><g/></g></g><g fill="#222222" fill-opacity="1"><g transform="translate(340.613937, 188.861218)"><g/></g></g><g fill="#222222" fill-opacity="1"><g transform="translate(349.673361, 188.861218)"><g/></g></g><g fill="#222222" fill-opacity="1"><g transform="translate(181.379659, 229.635991)"><g><path d="M 9.4375 -23.46875 L 9.4375 -16.8125 L 18.40625 -16.8125 L 18.40625 -11.90625 L 9.4375 -11.90625 L 9.4375 -5.09375 L 21.15625 -5.09375 L 21.15625 0 L 2.765625 0 L 2.765625 -28.578125 L 21.15625 -28.578125 L 21.15625 -23.46875 Z M 9.4375 -23.46875 "/></g></g></g><g fill="#222222" fill-opacity="1"><g transform="translate(203.851745, 229.635991)"><g><path d="M 21.515625 0 L 15.671875 0 C 15.234375 0 14.878906 -0.101562 14.609375 -0.3125 C 14.347656 -0.519531 14.140625 -0.769531 13.984375 -1.0625 L 10.359375 -7.296875 C 10.285156 -7.078125 10.203125 -6.867188 10.109375 -6.671875 C 10.023438 -6.472656 9.929688 -6.289062 9.828125 -6.125 L 6.84375 -1.0625 C 6.65625 -0.800781 6.4375 -0.554688 6.1875 -0.328125 C 5.945312 -0.109375 5.628906 0 5.234375 0 L -0.171875 0 L 6.640625 -10.515625 L 0.09375 -20.328125 L 5.9375 -20.328125 C 6.375 -20.328125 6.691406 -20.269531 6.890625 -20.15625 C 7.097656 -20.050781 7.28125 -19.867188 7.4375 -19.609375 L 11.0625 -13.59375 C 11.132812 -13.820312 11.226562 -14.050781 11.34375 -14.28125 C 11.46875 -14.507812 11.601562 -14.742188 11.75 -14.984375 L 14.328125 -19.515625 C 14.515625 -19.796875 14.707031 -20 14.90625 -20.125 C 15.113281 -20.257812 15.367188 -20.328125 15.671875 -20.328125 L 21.234375 -20.328125 L 14.6875 -10.78125 Z M 21.515625 0 "/></g></g></g><g fill="#222222" fill-opacity="1"><g transform="translate(225.186499, 229.635991)"><g><path d="M 17 -15.515625 C 16.820312 -15.285156 16.644531 -15.101562 16.46875 -14.96875 C 16.300781 -14.84375 16.0625 -14.78125 15.75 -14.78125 C 15.445312 -14.78125 15.171875 -14.851562 14.921875 -15 C 14.679688 -15.144531 14.410156 -15.304688 14.109375 -15.484375 C 13.816406 -15.660156 13.46875 -15.816406 13.0625 -15.953125 C 12.65625 -16.097656 12.148438 -16.171875 11.546875 -16.171875 C 10.804688 -16.171875 10.160156 -16.035156 9.609375 -15.765625 C 9.066406 -15.492188 8.617188 -15.101562 8.265625 -14.59375 C 7.921875 -14.082031 7.660156 -13.457031 7.484375 -12.71875 C 7.316406 -11.976562 7.234375 -11.144531 7.234375 -10.21875 C 7.234375 -8.269531 7.609375 -6.769531 8.359375 -5.71875 C 9.109375 -4.675781 10.144531 -4.15625 11.46875 -4.15625 C 12.175781 -4.15625 12.734375 -4.242188 13.140625 -4.421875 C 13.554688 -4.597656 13.90625 -4.789062 14.1875 -5 C 14.476562 -5.21875 14.742188 -5.421875 14.984375 -5.609375 C 15.234375 -5.796875 15.539062 -5.890625 15.90625 -5.890625 C 16.382812 -5.890625 16.75 -5.710938 17 -5.359375 L 18.765625 -3.171875 C 18.140625 -2.453125 17.476562 -1.867188 16.78125 -1.421875 C 16.09375 -0.972656 15.382812 -0.617188 14.65625 -0.359375 C 13.925781 -0.109375 13.195312 0.0625 12.46875 0.15625 C 11.738281 0.257812 11.023438 0.3125 10.328125 0.3125 C 9.085938 0.3125 7.898438 0.078125 6.765625 -0.390625 C 5.640625 -0.859375 4.648438 -1.539062 3.796875 -2.4375 C 2.941406 -3.332031 2.257812 -4.429688 1.75 -5.734375 C 1.25 -7.046875 1 -8.539062 1 -10.21875 C 1 -11.675781 1.21875 -13.039062 1.65625 -14.3125 C 2.09375 -15.59375 2.738281 -16.703125 3.59375 -17.640625 C 4.445312 -18.578125 5.503906 -19.3125 6.765625 -19.84375 C 8.035156 -20.382812 9.5 -20.65625 11.15625 -20.65625 C 12.75 -20.65625 14.144531 -20.398438 15.34375 -19.890625 C 16.550781 -19.378906 17.640625 -18.632812 18.609375 -17.65625 Z M 17 -15.515625 "/></g></g></g><g fill="#222222" fill-opacity="1"><g transform="translate(244.266199, 229.635991)"><g><path d="M 8.140625 -18.546875 C 8.867188 -19.171875 9.660156 -19.675781 10.515625 -20.0625 C 11.378906 -20.457031 12.40625 -20.65625 13.59375 -20.65625 C 14.695312 -20.65625 15.675781 -20.457031 16.53125 -20.0625 C 17.394531 -19.675781 18.117188 -19.140625 18.703125 -18.453125 C 19.296875 -17.773438 19.738281 -16.960938 20.03125 -16.015625 C 20.332031 -15.066406 20.484375 -14.035156 20.484375 -12.921875 L 20.484375 0 L 14.40625 0 L 14.40625 -12.921875 C 14.40625 -13.910156 14.175781 -14.679688 13.71875 -15.234375 C 13.269531 -15.796875 12.597656 -16.078125 11.703125 -16.078125 C 11.035156 -16.078125 10.410156 -15.9375 9.828125 -15.65625 C 9.253906 -15.375 8.691406 -14.992188 8.140625 -14.515625 L 8.140625 0 L 2.0625 0 L 2.0625 -29.359375 L 8.140625 -29.359375 Z M 8.140625 -18.546875 "/></g></g></g><g fill="#222222" fill-opacity="1"><g transform="translate(266.620631, 229.635991)"><g><path d="M 12.546875 -8.28125 C 11.328125 -8.226562 10.328125 -8.117188 9.546875 -7.953125 C 8.765625 -7.796875 8.144531 -7.597656 7.6875 -7.359375 C 7.226562 -7.128906 6.910156 -6.863281 6.734375 -6.5625 C 6.554688 -6.269531 6.46875 -5.945312 6.46875 -5.59375 C 6.46875 -4.894531 6.65625 -4.40625 7.03125 -4.125 C 7.414062 -3.84375 7.972656 -3.703125 8.703125 -3.703125 C 9.492188 -3.703125 10.179688 -3.835938 10.765625 -4.109375 C 11.347656 -4.390625 11.941406 -4.835938 12.546875 -5.453125 Z M 1.609375 -17.515625 C 2.835938 -18.597656 4.195312 -19.40625 5.6875 -19.9375 C 7.1875 -20.46875 8.796875 -20.734375 10.515625 -20.734375 C 11.742188 -20.734375 12.847656 -20.53125 13.828125 -20.125 C 14.816406 -19.726562 15.65625 -19.171875 16.34375 -18.453125 C 17.03125 -17.742188 17.554688 -16.898438 17.921875 -15.921875 C 18.285156 -14.941406 18.46875 -13.867188 18.46875 -12.703125 L 18.46875 0 L 15.6875 0 C 15.113281 0 14.675781 -0.078125 14.375 -0.234375 C 14.082031 -0.390625 13.835938 -0.71875 13.640625 -1.21875 L 13.21875 -2.328125 C 12.707031 -1.898438 12.21875 -1.519531 11.75 -1.1875 C 11.28125 -0.863281 10.789062 -0.585938 10.28125 -0.359375 C 9.78125 -0.128906 9.242188 0.0351562 8.671875 0.140625 C 8.109375 0.253906 7.476562 0.3125 6.78125 0.3125 C 5.851562 0.3125 5.007812 0.191406 4.25 -0.046875 C 3.5 -0.285156 2.859375 -0.640625 2.328125 -1.109375 C 1.796875 -1.585938 1.382812 -2.175781 1.09375 -2.875 C 0.8125 -3.570312 0.671875 -4.378906 0.671875 -5.296875 C 0.671875 -6.023438 0.851562 -6.765625 1.21875 -7.515625 C 1.582031 -8.265625 2.210938 -8.953125 3.109375 -9.578125 C 4.015625 -10.203125 5.234375 -10.722656 6.765625 -11.140625 C 8.296875 -11.554688 10.222656 -11.789062 12.546875 -11.84375 L 12.546875 -12.703125 C 12.546875 -13.890625 12.300781 -14.75 11.8125 -15.28125 C 11.320312 -15.8125 10.625 -16.078125 9.71875 -16.078125 C 9 -16.078125 8.410156 -16 7.953125 -15.84375 C 7.503906 -15.6875 7.097656 -15.507812 6.734375 -15.3125 C 6.378906 -15.113281 6.03125 -14.9375 5.6875 -14.78125 C 5.34375 -14.625 4.9375 -14.546875 4.46875 -14.546875 C 4.050781 -14.546875 3.695312 -14.648438 3.40625 -14.859375 C 3.125 -15.066406 2.890625 -15.316406 2.703125 -15.609375 Z M 1.609375 -17.515625 "/></g></g></g><g fill="#222222" fill-opacity="1"><g transform="translate(286.916098, 229.635991)"><g><path d="M 7.671875 -18.140625 C 8.054688 -18.503906 8.457031 -18.84375 8.875 -19.15625 C 9.300781 -19.46875 9.75 -19.734375 10.21875 -19.953125 C 10.695312 -20.171875 11.210938 -20.34375 11.765625 -20.46875 C 12.328125 -20.59375 12.9375 -20.65625 13.59375 -20.65625 C 14.695312 -20.65625 15.675781 -20.457031 16.53125 -20.0625 C 17.394531 -19.675781 18.117188 -19.140625 18.703125 -18.453125 C 19.296875 -17.773438 19.738281 -16.960938 20.03125 -16.015625 C 20.332031 -15.066406 20.484375 -14.035156 20.484375 -12.921875 L 20.484375 0 L 14.40625 0 L 14.40625 -12.921875 C 14.40625 -13.910156 14.175781 -14.679688 13.71875 -15.234375 C 13.269531 -15.796875 12.597656 -16.078125 11.703125 -16.078125 C 11.035156 -16.078125 10.410156 -15.9375 9.828125 -15.65625 C 9.253906 -15.375 8.691406 -14.992188 8.140625 -14.515625 L 8.140625 0 L 2.0625 0 L 2.0625 -20.328125 L 5.828125 -20.328125 C 6.585938 -20.328125 7.082031 -19.988281 7.3125 -19.3125 Z M 7.671875 -18.140625 "/></g></g></g><g fill="#222222" fill-opacity="1"><g transform="translate(309.27053, 229.635991)"><g><path d="M 9.8125 -11.234375 C 10.8125 -11.234375 11.535156 -11.484375 11.984375 -11.984375 C 12.441406 -12.492188 12.671875 -13.144531 12.671875 -13.9375 C 12.671875 -14.757812 12.441406 -15.40625 11.984375 -15.875 C 11.535156 -16.351562 10.8125 -16.59375 9.8125 -16.59375 C 8.800781 -16.59375 8.066406 -16.351562 7.609375 -15.875 C 7.160156 -15.40625 6.9375 -14.757812 6.9375 -13.9375 C 6.9375 -13.550781 6.992188 -13.191406 7.109375 -12.859375 C 7.222656 -12.535156 7.394531 -12.25 7.625 -12 C 7.863281 -11.757812 8.160156 -11.570312 8.515625 -11.4375 C 8.878906 -11.300781 9.3125 -11.234375 9.8125 -11.234375 Z M 14.515625 0.75 C 14.515625 0.257812 14.296875 -0.0859375 13.859375 -0.296875 C 13.429688 -0.515625 12.867188 -0.671875 12.171875 -0.765625 C 11.484375 -0.859375 10.707031 -0.910156 9.84375 -0.921875 C 8.988281 -0.941406 8.140625 -0.992188 7.296875 -1.078125 C 6.910156 -0.816406 6.597656 -0.523438 6.359375 -0.203125 C 6.117188 0.117188 6 0.476562 6 0.875 C 6 1.164062 6.0625 1.425781 6.1875 1.65625 C 6.3125 1.894531 6.53125 2.097656 6.84375 2.265625 C 7.15625 2.441406 7.578125 2.578125 8.109375 2.671875 C 8.640625 2.773438 9.3125 2.828125 10.125 2.828125 C 11 2.828125 11.71875 2.773438 12.28125 2.671875 C 12.84375 2.566406 13.289062 2.421875 13.625 2.234375 C 13.957031 2.054688 14.1875 1.835938 14.3125 1.578125 C 14.445312 1.328125 14.515625 1.050781 14.515625 0.75 Z M 20.515625 -19.703125 L 20.515625 -17.484375 C 20.515625 -17.148438 20.414062 -16.882812 20.21875 -16.6875 C 20.03125 -16.488281 19.707031 -16.335938 19.25 -16.234375 L 17.78125 -15.90625 C 17.863281 -15.613281 17.925781 -15.316406 17.96875 -15.015625 C 18.019531 -14.710938 18.046875 -14.398438 18.046875 -14.078125 C 18.046875 -13.054688 17.832031 -12.140625 17.40625 -11.328125 C 16.976562 -10.523438 16.394531 -9.835938 15.65625 -9.265625 C 14.914062 -8.691406 14.039062 -8.25 13.03125 -7.9375 C 12.03125 -7.632812 10.957031 -7.484375 9.8125 -7.484375 C 9.488281 -7.484375 9.175781 -7.492188 8.875 -7.515625 C 8.582031 -7.535156 8.289062 -7.570312 8 -7.625 C 7.550781 -7.351562 7.328125 -7.046875 7.328125 -6.703125 C 7.328125 -6.367188 7.507812 -6.125 7.875 -5.96875 C 8.25 -5.820312 8.734375 -5.71875 9.328125 -5.65625 C 9.929688 -5.59375 10.613281 -5.550781 11.375 -5.53125 C 12.144531 -5.519531 12.925781 -5.476562 13.71875 -5.40625 C 14.519531 -5.332031 15.300781 -5.207031 16.0625 -5.03125 C 16.832031 -4.863281 17.515625 -4.585938 18.109375 -4.203125 C 18.710938 -3.828125 19.195312 -3.320312 19.5625 -2.6875 C 19.9375 -2.0625 20.125 -1.257812 20.125 -0.28125 C 20.125 0.632812 19.898438 1.53125 19.453125 2.40625 C 19.003906 3.28125 18.347656 4.054688 17.484375 4.734375 C 16.628906 5.421875 15.570312 5.96875 14.3125 6.375 C 13.0625 6.789062 11.625 7 10 7 C 8.40625 7 7.03125 6.847656 5.875 6.546875 C 4.71875 6.242188 3.753906 5.847656 2.984375 5.359375 C 2.222656 4.867188 1.660156 4.300781 1.296875 3.65625 C 0.929688 3.019531 0.75 2.359375 0.75 1.671875 C 0.75 0.765625 1.007812 0.015625 1.53125 -0.578125 C 2.050781 -1.179688 2.78125 -1.671875 3.71875 -2.046875 C 3.226562 -2.335938 2.835938 -2.71875 2.546875 -3.1875 C 2.265625 -3.664062 2.125 -4.273438 2.125 -5.015625 C 2.125 -5.316406 2.175781 -5.632812 2.28125 -5.96875 C 2.382812 -6.300781 2.550781 -6.628906 2.78125 -6.953125 C 3.007812 -7.273438 3.289062 -7.578125 3.625 -7.859375 C 3.96875 -8.148438 4.375 -8.40625 4.84375 -8.625 C 3.78125 -9.1875 2.941406 -9.925781 2.328125 -10.84375 C 1.710938 -11.769531 1.40625 -12.847656 1.40625 -14.078125 C 1.40625 -15.097656 1.617188 -16.015625 2.046875 -16.828125 C 2.484375 -17.648438 3.078125 -18.34375 3.828125 -18.90625 C 4.585938 -19.476562 5.472656 -19.914062 6.484375 -20.21875 C 7.503906 -20.53125 8.613281 -20.6875 9.8125 -20.6875 C 11.53125 -20.6875 13.054688 -20.359375 14.390625 -19.703125 Z M 20.515625 -19.703125 "/></g></g></g><g fill="#222222" fill-opacity="1"><g transform="translate(330.271932, 229.635991)"><g><path d="M 14.703125 -12.609375 C 14.703125 -13.085938 14.640625 -13.554688 14.515625 -14.015625 C 14.390625 -14.472656 14.1875 -14.878906 13.90625 -15.234375 C 13.625 -15.597656 13.253906 -15.890625 12.796875 -16.109375 C 12.347656 -16.335938 11.796875 -16.453125 11.140625 -16.453125 C 9.984375 -16.453125 9.078125 -16.117188 8.421875 -15.453125 C 7.773438 -14.796875 7.347656 -13.847656 7.140625 -12.609375 Z M 7.0625 -9.078125 C 7.257812 -7.378906 7.773438 -6.144531 8.609375 -5.375 C 9.441406 -4.613281 10.519531 -4.234375 11.84375 -4.234375 C 12.550781 -4.234375 13.160156 -4.316406 13.671875 -4.484375 C 14.179688 -4.660156 14.632812 -4.851562 15.03125 -5.0625 C 15.425781 -5.269531 15.789062 -5.457031 16.125 -5.625 C 16.457031 -5.800781 16.804688 -5.890625 17.171875 -5.890625 C 17.660156 -5.890625 18.03125 -5.710938 18.28125 -5.359375 L 20.046875 -3.171875 C 19.410156 -2.453125 18.726562 -1.867188 18 -1.421875 C 17.28125 -0.972656 16.535156 -0.617188 15.765625 -0.359375 C 15.003906 -0.109375 14.238281 0.0625 13.46875 0.15625 C 12.707031 0.257812 11.984375 0.3125 11.296875 0.3125 C 9.867188 0.3125 8.53125 0.0820312 7.28125 -0.375 C 6.03125 -0.84375 4.9375 -1.535156 4 -2.453125 C 3.070312 -3.367188 2.335938 -4.503906 1.796875 -5.859375 C 1.253906 -7.222656 0.984375 -8.804688 0.984375 -10.609375 C 0.984375 -11.960938 1.210938 -13.25 1.671875 -14.46875 C 2.140625 -15.6875 2.804688 -16.753906 3.671875 -17.671875 C 4.546875 -18.585938 5.597656 -19.3125 6.828125 -19.84375 C 8.066406 -20.382812 9.460938 -20.65625 11.015625 -20.65625 C 12.367188 -20.65625 13.601562 -20.441406 14.71875 -20.015625 C 15.832031 -19.597656 16.789062 -18.988281 17.59375 -18.1875 C 18.40625 -17.394531 19.035156 -16.421875 19.484375 -15.265625 C 19.929688 -14.109375 20.15625 -12.796875 20.15625 -11.328125 C 20.15625 -10.867188 20.132812 -10.492188 20.09375 -10.203125 C 20.0625 -9.921875 19.992188 -9.695312 19.890625 -9.53125 C 19.785156 -9.363281 19.644531 -9.242188 19.46875 -9.171875 C 19.289062 -9.109375 19.0625 -9.078125 18.78125 -9.078125 Z M 7.0625 -9.078125 "/></g></g></g></svg>