<svg xmlns="http://www.w3.org/2000/svg" xmlns:xlink="http://www.w3.org/1999/xlink" width="500" zoomAndPan="magnify" viewBox="0 0 375 374.999991" height="500" preserveAspectRatio="xMidYMid meet" version="1.0"><defs><g/><clipPath id="825c695338"><path d="M 56.246094 162.515625 L 115.910156 162.515625 L 115.910156 174.746094 L 56.246094 174.746094 Z M 56.246094 162.515625 " clip-rule="nonzero"/></clipPath><clipPath id="2c47690386"><path d="M 50.136719 195.914062 L 109.796875 195.914062 L 109.796875 208.144531 L 50.136719 208.144531 Z M 50.136719 195.914062 " clip-rule="nonzero"/></clipPath><clipPath id="dffa0a6ac5"><path d="M 22 133.949219 L 86 133.949219 L 86 241.199219 L 22 241.199219 Z M 22 133.949219 " clip-rule="nonzero"/></clipPath><clipPath id="d9d4073547"><path d="M 156.996094 215.210938 L 81.246094 84.007812 L -49.957031 159.757812 L 25.792969 290.960938 Z M 156.996094 215.210938 " clip-rule="nonzero"/></clipPath><clipPath id="a6092e3755"><path d="M 78 133.949219 L 142 133.949219 L 142 241.199219 L 78 241.199219 Z M 78 133.949219 " clip-rule="nonzero"/></clipPath><clipPath id="8af7178f92"><path d="M 213.242188 215.210938 L 137.492188 84.007812 L 6.289062 159.757812 L 82.039062 290.960938 Z M 213.242188 215.210938 " clip-rule="nonzero"/></clipPath><clipPath id="44bf8a364c"><path d="M 120 133.949219 L 184 133.949219 L 184 241.199219 L 120 241.199219 Z M 120 133.949219 " clip-rule="nonzero"/></clipPath><clipPath id="034e48474a"><path d="M 48.523438 215.210938 L 124.273438 84.007812 L 255.476562 159.757812 L 179.726562 290.960938 Z M 48.523438 215.210938 " clip-rule="nonzero"/></clipPath><clipPath id="1f4850c7e0"><path d="M 98.421875 133.949219 L 205.671875 133.949219 L 205.671875 241.199219 L 98.421875 241.199219 Z M 98.421875 133.949219 " clip-rule="nonzero"/></clipPath><clipPath id="8fb6f0a840"><path d="M 237.390625 252.09375 L 216.570312 102.03125 L 66.507812 122.855469 L 87.328125 272.917969 Z M 237.390625 252.09375 " clip-rule="nonzero"/></clipPath></defs><path fill="#ffffff" d="M 182.996094 190.960938 L 259.078125 190.960938 L 259.078125 194.464844 L 182.996094 194.464844 Z M 182.996094 190.960938 " fill-opacity="1" fill-rule="nonzero"/><g fill="#ffffff" fill-opacity="1"><g transform="translate(182.995496, 188.861218)"><g><path d="M 27.703125 -28.578125 L 27.703125 0 L 21.046875 0 L 21.046875 -12.078125 L 9.4375 -12.078125 L 9.4375 0 L 2.765625 0 L 2.765625 -28.578125 L 9.4375 -28.578125 L 9.4375 -16.625 L 21.046875 -16.625 L 21.046875 -28.578125 Z M 27.703125 -28.578125 "/></g></g></g><g fill="#ffffff" fill-opacity="1"><g transform="translate(213.468111, 188.861218)"><g><path d="M 23.296875 -23.3125 L 15.25 -23.3125 L 15.25 0 L 8.625 0 L 8.625 -23.3125 L 0.59375 -23.3125 L 0.59375 -28.578125 L 23.296875 -28.578125 Z M 23.296875 -23.3125 "/></g></g></g><g fill="#ffffff" fill-opacity="1"><g transform="translate(237.352054, 188.861218)"><g><path d="M 18.546875 -22.765625 C 18.347656 -22.453125 18.140625 -22.21875 17.921875 -22.0625 C 17.710938 -21.90625 17.4375 -21.828125 17.09375 -21.828125 C 16.789062 -21.828125 16.46875 -21.921875 16.125 -22.109375 C 15.78125 -22.296875 15.390625 -22.503906 14.953125 -22.734375 C 14.515625 -22.972656 14.015625 -23.1875 13.453125 -23.375 C 12.890625 -23.570312 12.25 -23.671875 11.53125 -23.671875 C 10.289062 -23.671875 9.363281 -23.40625 8.75 -22.875 C 8.144531 -22.34375 7.84375 -21.628906 7.84375 -20.734375 C 7.84375 -20.148438 8.023438 -19.671875 8.390625 -19.296875 C 8.753906 -18.921875 9.234375 -18.59375 9.828125 -18.3125 C 10.421875 -18.039062 11.097656 -17.789062 11.859375 -17.5625 C 12.628906 -17.332031 13.410156 -17.078125 14.203125 -16.796875 C 15.003906 -16.515625 15.785156 -16.179688 16.546875 -15.796875 C 17.316406 -15.421875 18 -14.9375 18.59375 -14.34375 C 19.1875 -13.757812 19.664062 -13.046875 20.03125 -12.203125 C 20.40625 -11.359375 20.59375 -10.34375 20.59375 -9.15625 C 20.59375 -7.832031 20.363281 -6.59375 19.90625 -5.4375 C 19.445312 -4.289062 18.78125 -3.289062 17.90625 -2.4375 C 17.039062 -1.582031 15.96875 -0.910156 14.6875 -0.421875 C 13.414062 0.0664062 11.972656 0.3125 10.359375 0.3125 C 9.460938 0.3125 8.550781 0.21875 7.625 0.03125 C 6.707031 -0.144531 5.816406 -0.398438 4.953125 -0.734375 C 4.097656 -1.066406 3.289062 -1.460938 2.53125 -1.921875 C 1.769531 -2.378906 1.109375 -2.890625 0.546875 -3.453125 L 2.515625 -6.546875 C 2.671875 -6.773438 2.875 -6.960938 3.125 -7.109375 C 3.382812 -7.253906 3.664062 -7.328125 3.96875 -7.328125 C 4.351562 -7.328125 4.742188 -7.203125 5.140625 -6.953125 C 5.546875 -6.710938 6 -6.441406 6.5 -6.140625 C 7 -5.835938 7.578125 -5.5625 8.234375 -5.3125 C 8.890625 -5.0625 9.660156 -4.9375 10.546875 -4.9375 C 11.753906 -4.9375 12.691406 -5.203125 13.359375 -5.734375 C 14.023438 -6.265625 14.359375 -7.101562 14.359375 -8.25 C 14.359375 -8.914062 14.171875 -9.457031 13.796875 -9.875 C 13.429688 -10.300781 12.953125 -10.648438 12.359375 -10.921875 C 11.765625 -11.191406 11.085938 -11.429688 10.328125 -11.640625 C 9.578125 -11.859375 8.800781 -12.09375 8 -12.34375 C 7.195312 -12.59375 6.414062 -12.90625 5.65625 -13.28125 C 4.90625 -13.65625 4.234375 -14.144531 3.640625 -14.75 C 3.046875 -15.363281 2.5625 -16.125 2.1875 -17.03125 C 1.820312 -17.9375 1.640625 -19.054688 1.640625 -20.390625 C 1.640625 -21.460938 1.851562 -22.507812 2.28125 -23.53125 C 2.71875 -24.550781 3.351562 -25.457031 4.1875 -26.25 C 5.03125 -27.050781 6.054688 -27.691406 7.265625 -28.171875 C 8.484375 -28.648438 9.878906 -28.890625 11.453125 -28.890625 C 12.328125 -28.890625 13.175781 -28.816406 14 -28.671875 C 14.832031 -28.535156 15.617188 -28.332031 16.359375 -28.0625 C 17.109375 -27.800781 17.804688 -27.484375 18.453125 -27.109375 C 19.109375 -26.734375 19.691406 -26.3125 20.203125 -25.84375 Z M 18.546875 -22.765625 "/></g></g></g><path fill="#ffffff" d="M 259.078125 190.960938 L 358.734375 190.960938 L 358.734375 194.464844 L 259.078125 194.464844 Z M 259.078125 190.960938 " fill-opacity="1" fill-rule="nonzero"/><g fill="#ffffff" fill-opacity="1"><g transform="translate(259.079116, 188.861218)"><g/></g></g><g fill="#ffffff" fill-opacity="1"><g transform="translate(268.13854, 188.861218)"><g/></g></g><g fill="#ffffff" fill-opacity="1"><g transform="translate(277.197965, 188.861218)"><g/></g></g><g fill="#ffffff" fill-opacity="1"><g transform="translate(286.257389, 188.861218)"><g/></g></g><g fill="#ffffff" fill-opacity="1"><g transform="translate(295.316814, 188.861218)"><g/></g></g><g fill="#ffffff" fill-opacity="1"><g transform="translate(304.376238, 188.861218)"><g/></g></g><g fill="#ffffff" fill-opacity="1"><g transform="translate(313.435663, 188.861218)"><g/></g></g><g fill="#ffffff" fill-opacity="1"><g transform="translate(322.495088, 188.861218)"><g/></g></g><g fill="#ffffff" fill-opacity="1"><g transform="translate(331.554512, 188.861218)"><g/></g></g><g fill="#ffffff" fill-opacity="1"><g transform="translate(340.613937, 188.861218)"><g/></g></g><g fill="#ffffff" fill-opacity="1"><g transform="translate(349.673361, 188.861218)"><g/></g></g><g fill="#ffffff" fill-opacity="1"><g transform="translate(181.379659, 229.635991)"><g><path d="M 9.4375 -23.46875 L 9.4375 -16.8125 L 18.40625 -16.8125 L 18.40625 -11.90625 L 9.4375 -11.90625 L 9.4375 -5.09375 L 21.15625 -5.09375 L 21.15625 0 L 2.765625 0 L 2.765625 -28.578125 L 21.15625 -28.578125 L 21.15625 -23.46875 Z M 9.4375 -23.46875 "/></g></g></g><g fill="#ffffff" fill-opacity="1"><g transform="translate(203.851745, 229.635991)"><g><path d="M 21.515625 0 L 15.671875 0 C 15.234375 0 14.878906 -0.101562 14.609375 -0.3125 C 14.347656 -0.519531 14.140625 -0.769531 13.984375 -1.0625 L 10.359375 -7.296875 C 10.285156 -7.078125 10.203125 -6.867188 10.109375 -6.671875 C 10.023438 -6.472656 9.929688 -6.289062 9.828125 -6.125 L 6.84375 -1.0625 C 6.65625 -0.800781 6.4375 -0.554688 6.1875 -0.328125 C 5.945312 -0.109375 5.628906 0 5.234375 0 L -0.171875 0 L 6.640625 -10.515625 L 0.09375 -20.328125 L 5.9375 -20.328125 C 6.375 -20.328125 6.691406 -20.269531 6.890625 -20.15625 C 7.097656 -20.050781 7.28125 -19.867188 7.4375 -19.609375 L 11.0625 -13.59375 C 11.132812 -13.820312 11.226562 -14.050781 11.34375 -14.28125 C 11.46875 -14.507812 11.601562 -14.742188 11.75 -14.984375 L 14.328125 -19.515625 C 14.515625 -19.796875 14.707031 -20 14.90625 -20.125 C 15.113281 -20.257812 15.367188 -20.328125 15.671875 -20.328125 L 21.234375 -20.328125 L 14.6875 -10.78125 Z M 21.515625 0 "/></g></g></g><g fill="#ffffff" fill-opacity="1"><g transform="translate(225.186499, 229.635991)"><g><path d="M 17 -15.515625 C 16.820312 -15.285156 16.644531 -15.101562 16.46875 -14.96875 C 16.300781 -14.84375 16.0625 -14.78125 15.75 -14.78125 C 15.445312 -14.78125 15.171875 -14.851562 14.921875 -15 C 14.679688 -15.144531 14.410156 -15.304688 14.109375 -15.484375 C 13.816406 -15.660156 13.46875 -15.816406 13.0625 -15.953125 C 12.65625 -16.097656 12.148438 -16.171875 11.546875 -16.171875 C 10.804688 -16.171875 10.160156 -16.035156 9.609375 -15.765625 C 9.066406 -15.492188 8.617188 -15.101562 8.265625 -14.59375 C 7.921875 -14.082031 7.660156 -13.457031 7.484375 -12.71875 C 7.316406 -11.976562 7.234375 -11.144531 7.234375 -10.21875 C 7.234375 -8.269531 7.609375 -6.769531 8.359375 -5.71875 C 9.109375 -4.675781 10.144531 -4.15625 11.46875 -4.15625 C 12.175781 -4.15625 12.734375 -4.242188 13.140625 -4.421875 C 13.554688 -4.597656 13.90625 -4.789062 14.1875 -5 C 14.476562 -5.21875 14.742188 -5.421875 14.984375 -5.609375 C 15.234375 -5.796875 15.539062 -5.890625 15.90625 -5.890625 C 16.382812 -5.890625 16.75 -5.710938 17 -5.359375 L 18.765625 -3.171875 C 18.140625 -2.453125 17.476562 -1.867188 16.78125 -1.421875 C 16.09375 -0.972656 15.382812 -0.617188 14.65625 -0.359375 C 13.925781 -0.109375 13.195312 0.0625 12.46875 0.15625 C 11.738281 0.257812 11.023438 0.3125 10.328125 0.3125 C 9.085938 0.3125 7.898438 0.078125 6.765625 -0.390625 C 5.640625 -0.859375 4.648438 -1.539062 3.796875 -2.4375 C 2.941406 -3.332031 2.257812 -4.429688 1.75 -5.734375 C 1.25 -7.046875 1 -8.539062 1 -10.21875 C 1 -11.675781 1.21875 -13.039062 1.65625 -14.3125 C 2.09375 -15.59375 2.738281 -16.703125 3.59375 -17.640625 C 4.445312 -18.578125 5.503906 -19.3125 6.765625 -19.84375 C 8.035156 -20.382812 9.5 -20.65625 11.15625 -20.65625 C 12.75 -20.65625 14.144531 -20.398438 15.34375 -19.890625 C 16.550781 -19.378906 17.640625 -18.632812 18.609375 -17.65625 Z M 17 -15.515625 "/></g></g></g><g fill="#ffffff" fill-opacity="1"><g transform="translate(244.266199, 229.635991)"><g><path d="M 8.140625 -18.546875 C 8.867188 -19.171875 9.660156 -19.675781 10.515625 -20.0625 C 11.378906 -20.457031 12.40625 -20.65625 13.59375 -20.65625 C 14.695312 -20.65625 15.675781 -20.457031 16.53125 -20.0625 C 17.394531 -19.675781 18.117188 -19.140625 18.703125 -18.453125 C 19.296875 -17.773438 19.738281 -16.960938 20.03125 -16.015625 C 20.332031 -15.066406 20.484375 -14.035156 20.484375 -12.921875 L 20.484375 0 L 14.40625 0 L 14.40625 -12.921875 C 14.40625 -13.910156 14.175781 -14.679688 13.71875 -15.234375 C 13.269531 -15.796875 12.597656 -16.078125 11.703125 -16.078125 C 11.035156 -16.078125 10.410156 -15.9375 9.828125 -15.65625 C 9.253906 -15.375 8.691406 -14.992188 8.140625 -14.515625 L 8.140625 0 L 2.0625 0 L 2.0625 -29.359375 L 8.140625 -29.359375 Z M 8.140625 -18.546875 "/></g></g></g><g fill="#ffffff" fill-opacity="1"><g transform="translate(266.620631, 229.635991)"><g><path d="M 12.546875 -8.28125 C 11.328125 -8.226562 10.328125 -8.117188 9.546875 -7.953125 C 8.765625 -7.796875 8.144531 -7.597656 7.6875 -7.359375 C 7.226562 -7.128906 6.910156 -6.863281 6.734375 -6.5625 C 6.554688 -6.269531 6.46875 -5.945312 6.46875 -5.59375 C 6.46875 -4.894531 6.65625 -4.40625 7.03125 -4.125 C 7.414062 -3.84375 7.972656 -3.703125 8.703125 -3.703125 C 9.492188 -3.703125 10.179688 -3.835938 10.765625 -4.109375 C 11.347656 -4.390625 11.941406 -4.835938 12.546875 -5.453125 Z M 1.609375 -17.515625 C 2.835938 -18.597656 4.195312 -19.40625 5.6875 -19.9375 C 7.1875 -20.46875 8.796875 -20.734375 10.515625 -20.734375 C 11.742188 -20.734375 12.847656 -20.53125 13.828125 -20.125 C 14.816406 -19.726562 15.65625 -19.171875 16.34375 -18.453125 C 17.03125 -17.742188 17.554688 -16.898438 17.921875 -15.921875 C 18.285156 -14.941406 18.46875 -13.867188 18.46875 -12.703125 L 18.46875 0 L 15.6875 0 C 15.113281 0 14.675781 -0.078125 14.375 -0.234375 C 14.082031 -0.390625 13.835938 -0.71875 13.640625 -1.21875 L 13.21875 -2.328125 C 12.707031 -1.898438 12.21875 -1.519531 11.75 -1.1875 C 11.28125 -0.863281 10.789062 -0.585938 10.28125 -0.359375 C 9.78125 -0.128906 9.242188 0.0351562 8.671875 0.140625 C 8.109375 0.253906 7.476562 0.3125 6.78125 0.3125 C 5.851562 0.3125 5.007812 0.191406 4.25 -0.046875 C 3.5 -0.285156 2.859375 -0.640625 2.328125 -1.109375 C 1.796875 -1.585938 1.382812 -2.175781 1.09375 -2.875 C 0.8125 -3.570312 0.671875 -4.378906 0.671875 -5.296875 C 0.671875 -6.023438 0.851562 -6.765625 1.21875 -7.515625 C 1.582031 -8.265625 2.210938 -8.953125 3.109375 -9.578125 C 4.015625 -10.203125 5.234375 -10.722656 6.765625 -11.140625 C 8.296875 -11.554688 10.222656 -11.789062 12.546875 -11.84375 L 12.546875 -12.703125 C 12.546875 -13.890625 12.300781 -14.75 11.8125 -15.28125 C 11.320312 -15.8125 10.625 -16.078125 9.71875 -16.078125 C 9 -16.078125 8.410156 -16 7.953125 -15.84375 C 7.503906 -15.6875 7.097656 -15.507812 6.734375 -15.3125 C 6.378906 -15.113281 6.03125 -14.9375 5.6875 -14.78125 C 5.34375 -14.625 4.9375 -14.546875 4.46875 -14.546875 C 4.050781 -14.546875 3.695312 -14.648438 3.40625 -14.859375 C 3.125 -15.066406 2.890625 -15.316406 2.703125 -15.609375 Z M 1.609375 -17.515625 "/></g></g></g><g fill="#ffffff" fill-opacity="1"><g transform="translate(286.916098, 229.635991)"><g><path d="M 7.671875 -18.140625 C 8.054688 -18.503906 8.457031 -18.84375 8.875 -19.15625 C 9.300781 -19.46875 9.75 -19.734375 10.21875 -19.953125 C 10.695312 -20.171875 11.210938 -20.34375 11.765625 -20.46875 C 12.328125 -20.59375 12.9375 -20.65625 13.59375 -20.65625 C 14.695312 -20.65625 15.675781 -20.457031 16.53125 -20.0625 C 17.394531 -19.675781 18.117188 -19.140625 18.703125 -18.453125 C 19.296875 -17.773438 19.738281 -16.960938 20.03125 -16.015625 C 20.332031 -15.066406 20.484375 -14.035156 20.484375 -12.921875 L 20.484375 0 L 14.40625 0 L 14.40625 -12.921875 C 14.40625 -13.910156 14.175781 -14.679688 13.71875 -15.234375 C 13.269531 -15.796875 12.597656 -16.078125 11.703125 -16.078125 C 11.035156 -16.078125 10.410156 -15.9375 9.828125 -15.65625 C 9.253906 -15.375 8.691406 -14.992188 8.140625 -14.515625 L 8.140625 0 L 2.0625 0 L 2.0625 -20.328125 L 5.828125 -20.328125 C 6.585938 -20.328125 7.082031 -19.988281 7.3125 -19.3125 Z M 7.671875 -18.140625 "/></g></g></g><g fill="#ffffff" fill-opacity="1"><g transform="translate(309.27053, 229.635991)"><g><path d="M 9.8125 -11.234375 C 10.8125 -11.234375 11.535156 -11.484375 11.984375 -11.984375 C 12.441406 -12.492188 12.671875 -13.144531 12.671875 -13.9375 C 12.671875 -14.757812 12.441406 -15.40625 11.984375 -15.875 C 11.535156 -16.351562 10.8125 -16.59375 9.8125 -16.59375 C 8.800781 -16.59375 8.066406 -16.351562 7.609375 -15.875 C 7.160156 -15.40625 6.9375 -14.757812 6.9375 -13.9375 C 6.9375 -13.550781 6.992188 -13.191406 7.109375 -12.859375 C 7.222656 -12.535156 7.394531 -12.25 7.625 -12 C 7.863281 -11.757812 8.160156 -11.570312 8.515625 -11.4375 C 8.878906 -11.300781 9.3125 -11.234375 9.8125 -11.234375 Z M 14.515625 0.75 C 14.515625 0.257812 14.296875 -0.0859375 13.859375 -0.296875 C 13.429688 -0.515625 12.867188 -0.671875 12.171875 -0.765625 C 11.484375 -0.859375 10.707031 -0.910156 9.84375 -0.921875 C 8.988281 -0.941406 8.140625 -0.992188 7.296875 -1.078125 C 6.910156 -0.816406 6.597656 -0.523438 6.359375 -0.203125 C 6.117188 0.117188 6 0.476562 6 0.875 C 6 1.164062 6.0625 1.425781 6.1875 1.65625 C 6.3125 1.894531 6.53125 2.097656 6.84375 2.265625 C 7.15625 2.441406 7.578125 2.578125 8.109375 2.671875 C 8.640625 2.773438 9.3125 2.828125 10.125 2.828125 C 11 2.828125 11.71875 2.773438 12.28125 2.671875 C 12.84375 2.566406 13.289062 2.421875 13.625 2.234375 C 13.957031 2.054688 14.1875 1.835938 14.3125 1.578125 C 14.445312 1.328125 14.515625 1.050781 14.515625 0.75 Z M 20.515625 -19.703125 L 20.515625 -17.484375 C 20.515625 -17.148438 20.414062 -16.882812 20.21875 -16.6875 C 20.03125 -16.488281 19.707031 -16.335938 19.25 -16.234375 L 17.78125 -15.90625 C 17.863281 -15.613281 17.925781 -15.316406 17.96875 -15.015625 C 18.019531 -14.710938 18.046875 -14.398438 18.046875 -14.078125 C 18.046875 -13.054688 17.832031 -12.140625 17.40625 -11.328125 C 16.976562 -10.523438 16.394531 -9.835938 15.65625 -9.265625 C 14.914062 -8.691406 14.039062 -8.25 13.03125 -7.9375 C 12.03125 -7.632812 10.957031 -7.484375 9.8125 -7.484375 C 9.488281 -7.484375 9.175781 -7.492188 8.875 -7.515625 C 8.582031 -7.535156 8.289062 -7.570312 8 -7.625 C 7.550781 -7.351562 7.328125 -7.046875 7.328125 -6.703125 C 7.328125 -6.367188 7.507812 -6.125 7.875 -5.96875 C 8.25 -5.820312 8.734375 -5.71875 9.328125 -5.65625 C 9.929688 -5.59375 10.613281 -5.550781 11.375 -5.53125 C 12.144531 -5.519531 12.925781 -5.476562 13.71875 -5.40625 C 14.519531 -5.332031 15.300781 -5.207031 16.0625 -5.03125 C 16.832031 -4.863281 17.515625 -4.585938 18.109375 -4.203125 C 18.710938 -3.828125 19.195312 -3.320312 19.5625 -2.6875 C 19.9375 -2.0625 20.125 -1.257812 20.125 -0.28125 C 20.125 0.632812 19.898438 1.53125 19.453125 2.40625 C 19.003906 3.28125 18.347656 4.054688 17.484375 4.734375 C 16.628906 5.421875 15.570312 5.96875 14.3125 6.375 C 13.0625 6.789062 11.625 7 10 7 C 8.40625 7 7.03125 6.847656 5.875 6.546875 C 4.71875 6.242188 3.753906 5.847656 2.984375 5.359375 C 2.222656 4.867188 1.660156 4.300781 1.296875 3.65625 C 0.929688 3.019531 0.75 2.359375 0.75 1.671875 C 0.75 0.765625 1.007812 0.015625 1.53125 -0.578125 C 2.050781 -1.179688 2.78125 -1.671875 3.71875 -2.046875 C 3.226562 -2.335938 2.835938 -2.71875 2.546875 -3.1875 C 2.265625 -3.664062 2.125 -4.273438 2.125 -5.015625 C 2.125 -5.316406 2.175781 -5.632812 2.28125 -5.96875 C 2.382812 -6.300781 2.550781 -6.628906 2.78125 -6.953125 C 3.007812 -7.273438 3.289062 -7.578125 3.625 -7.859375 C 3.96875 -8.148438 4.375 -8.40625 4.84375 -8.625 C 3.78125 -9.1875 2.941406 -9.925781 2.328125 -10.84375 C 1.710938 -11.769531 1.40625 -12.847656 1.40625 -14.078125 C 1.40625 -15.097656 1.617188 -16.015625 2.046875 -16.828125 C 2.484375 -17.648438 3.078125 -18.34375 3.828125 -18.90625 C 4.585938 -19.476562 5.472656 -19.914062 6.484375 -20.21875 C 7.503906 -20.53125 8.613281 -20.6875 9.8125 -20.6875 C 11.53125 -20.6875 13.054688 -20.359375 14.390625 -19.703125 Z M 20.515625 -19.703125 "/></g></g></g><g fill="#ffffff" fill-opacity="1"><g transform="translate(330.271932, 229.635991)"><g><path d="M 14.703125 -12.609375 C 14.703125 -13.085938 14.640625 -13.554688 14.515625 -14.015625 C 14.390625 -14.472656 14.1875 -14.878906 13.90625 -15.234375 C 13.625 -15.597656 13.253906 -15.890625 12.796875 -16.109375 C 12.347656 -16.335938 11.796875 -16.453125 11.140625 -16.453125 C 9.984375 -16.453125 9.078125 -16.117188 8.421875 -15.453125 C 7.773438 -14.796875 7.347656 -13.847656 7.140625 -12.609375 Z M 7.0625 -9.078125 C 7.257812 -7.378906 7.773438 -6.144531 8.609375 -5.375 C 9.441406 -4.613281 10.519531 -4.234375 11.84375 -4.234375 C 12.550781 -4.234375 13.160156 -4.316406 13.671875 -4.484375 C 14.179688 -4.660156 14.632812 -4.851562 15.03125 -5.0625 C 15.425781 -5.269531 15.789062 -5.457031 16.125 -5.625 C 16.457031 -5.800781 16.804688 -5.890625 17.171875 -5.890625 C 17.660156 -5.890625 18.03125 -5.710938 18.28125 -5.359375 L 20.046875 -3.171875 C 19.410156 -2.453125 18.726562 -1.867188 18 -1.421875 C 17.28125 -0.972656 16.535156 -0.617188 15.765625 -0.359375 C 15.003906 -0.109375 14.238281 0.0625 13.46875 0.15625 C 12.707031 0.257812 11.984375 0.3125 11.296875 0.3125 C 9.867188 0.3125 8.53125 0.0820312 7.28125 -0.375 C 6.03125 -0.84375 4.9375 -1.535156 4 -2.453125 C 3.070312 -3.367188 2.335938 -4.503906 1.796875 -5.859375 C 1.253906 -7.222656 0.984375 -8.804688 0.984375 -10.609375 C 0.984375 -11.960938 1.210938 -13.25 1.671875 -14.46875 C 2.140625 -15.6875 2.804688 -16.753906 3.671875 -17.671875 C 4.546875 -18.585938 5.597656 -19.3125 6.828125 -19.84375 C 8.066406 -20.382812 9.460938 -20.65625 11.015625 -20.65625 C 12.367188 -20.65625 13.601562 -20.441406 14.71875 -20.015625 C 15.832031 -19.597656 16.789062 -18.988281 17.59375 -18.1875 C 18.40625 -17.394531 19.035156 -16.421875 19.484375 -15.265625 C 19.929688 -14.109375 20.15625 -12.796875 20.15625 -11.328125 C 20.15625 -10.867188 20.132812 -10.492188 20.09375 -10.203125 C 20.0625 -9.921875 19.992188 -9.695312 19.890625 -9.53125 C 19.785156 -9.363281 19.644531 -9.242188 19.46875 -9.171875 C 19.289062 -9.109375 19.0625 -9.078125 18.78125 -9.078125 Z M 7.0625 -9.078125 "/></g></g></g><g clip-path="url(#825c695338)"><path fill="#ffffff" d="M 56.246094 162.515625 L 115.917969 162.515625 L 115.917969 174.746094 L 56.246094 174.746094 Z M 56.246094 162.515625 " fill-opacity="1" fill-rule="nonzero"/></g><g clip-path="url(#2c47690386)"><path fill="#ffffff" d="M 50.136719 195.914062 L 109.808594 195.914062 L 109.808594 208.144531 L 50.136719 208.144531 Z M 50.136719 195.914062 " fill-opacity="1" fill-rule="nonzero"/></g><g clip-path="url(#dffa0a6ac5)"><g clip-path="url(#d9d4073547)"><path fill="#ffffff" d="M 84.554688 90.242188 C 84.941406 90.960938 85.179688 91.722656 85.265625 92.53125 C 85.355469 93.339844 85.289062 94.136719 85.066406 94.917969 L 34.667969 283 C 34.570312 283.402344 34.433594 283.792969 34.253906 284.167969 C 34.078125 284.546875 33.863281 284.902344 33.617188 285.234375 C 33.367188 285.570312 33.089844 285.875 32.777344 286.15625 C 32.46875 286.433594 32.136719 286.679688 31.777344 286.890625 C 31.417969 287.101562 31.042969 287.277344 30.648438 287.414062 C 30.257812 287.550781 29.851562 287.644531 29.441406 287.703125 C 29.027344 287.757812 28.613281 287.773438 28.199219 287.746094 C 27.785156 287.722656 27.375 287.65625 26.972656 287.546875 C 26.570312 287.4375 26.183594 287.292969 25.808594 287.109375 C 25.4375 286.921875 25.085938 286.703125 24.757812 286.449219 C 24.429688 286.191406 24.128906 285.90625 23.855469 285.59375 C 23.582031 285.277344 23.34375 284.9375 23.140625 284.574219 C 22.9375 284.214844 22.769531 283.832031 22.640625 283.4375 C 22.511719 283.042969 22.421875 282.636719 22.375 282.222656 C 22.328125 281.808594 22.320312 281.394531 22.355469 280.980469 C 22.390625 280.566406 22.464844 280.160156 22.582031 279.757812 L 72.976562 91.679688 C 73.132812 91.066406 73.371094 90.492188 73.703125 89.953125 C 74.03125 89.414062 74.429688 88.9375 74.902344 88.519531 C 75.375 88.101562 75.898438 87.765625 76.472656 87.503906 C 77.050781 87.246094 77.648438 87.078125 78.277344 87 C 78.902344 86.921875 79.523438 86.941406 80.144531 87.050781 C 80.765625 87.160156 81.355469 87.363281 81.917969 87.652344 C 82.476562 87.941406 82.980469 88.304688 83.433594 88.75 C 83.882812 89.191406 84.257812 89.6875 84.554688 90.242188 Z M 84.554688 90.242188 " fill-opacity="1" fill-rule="nonzero"/></g></g><g clip-path="url(#a6092e3755)"><g clip-path="url(#8af7178f92)"><path fill="#ffffff" d="M 140.800781 90.242188 C 141.1875 90.960938 141.425781 91.722656 141.511719 92.53125 C 141.601562 93.339844 141.535156 94.136719 141.3125 94.917969 L 90.917969 283 C 90.816406 283.402344 90.679688 283.792969 90.5 284.167969 C 90.324219 284.546875 90.109375 284.902344 89.863281 285.234375 C 89.613281 285.570312 89.335938 285.875 89.027344 286.15625 C 88.714844 286.433594 88.382812 286.679688 88.023438 286.890625 C 87.664062 287.101562 87.289062 287.277344 86.894531 287.414062 C 86.503906 287.550781 86.101562 287.644531 85.6875 287.703125 C 85.273438 287.757812 84.859375 287.773438 84.445312 287.746094 C 84.03125 287.722656 83.621094 287.65625 83.21875 287.546875 C 82.816406 287.4375 82.429688 287.292969 82.054688 287.109375 C 81.683594 286.921875 81.332031 286.703125 81.003906 286.449219 C 80.675781 286.191406 80.375 285.90625 80.101562 285.59375 C 79.828125 285.277344 79.589844 284.9375 79.386719 284.574219 C 79.183594 284.214844 79.015625 283.832031 78.886719 283.4375 C 78.757812 283.042969 78.671875 282.636719 78.621094 282.222656 C 78.574219 281.808594 78.566406 281.394531 78.601562 280.980469 C 78.636719 280.566406 78.710938 280.160156 78.828125 279.757812 L 129.222656 91.679688 C 129.378906 91.066406 129.621094 90.492188 129.949219 89.953125 C 130.277344 89.414062 130.675781 88.9375 131.148438 88.519531 C 131.621094 88.101562 132.144531 87.765625 132.722656 87.503906 C 133.296875 87.246094 133.894531 87.078125 134.523438 87 C 135.148438 86.921875 135.769531 86.941406 136.390625 87.050781 C 137.011719 87.160156 137.601562 87.363281 138.164062 87.652344 C 138.722656 87.941406 139.230469 88.304688 139.679688 88.75 C 140.128906 89.191406 140.503906 89.6875 140.800781 90.242188 Z M 140.800781 90.242188 " fill-opacity="1" fill-rule="nonzero"/></g></g><g clip-path="url(#44bf8a364c)"><g clip-path="url(#034e48474a)"><path fill="#004aad" d="M 120.964844 90.242188 C 120.578125 90.960938 120.34375 91.722656 120.253906 92.53125 C 120.164062 93.339844 120.234375 94.136719 120.453125 94.917969 L 170.851562 283 C 170.949219 283.402344 171.089844 283.792969 171.265625 284.167969 C 171.445312 284.546875 171.65625 284.902344 171.90625 285.234375 C 172.152344 285.570312 172.433594 285.875 172.742188 286.15625 C 173.050781 286.433594 173.386719 286.679688 173.742188 286.890625 C 174.101562 287.101562 174.476562 287.277344 174.871094 287.414062 C 175.265625 287.550781 175.667969 287.644531 176.078125 287.703125 C 176.492188 287.757812 176.90625 287.773438 177.320312 287.746094 C 177.738281 287.722656 178.144531 287.65625 178.546875 287.546875 C 178.949219 287.4375 179.335938 287.292969 179.710938 287.109375 C 180.082031 286.921875 180.433594 286.703125 180.761719 286.449219 C 181.09375 286.191406 181.394531 285.90625 181.664062 285.59375 C 181.9375 285.277344 182.175781 284.9375 182.378906 284.574219 C 182.585938 284.214844 182.75 283.832031 182.878906 283.4375 C 183.007812 283.042969 183.097656 282.636719 183.144531 282.222656 C 183.191406 281.808594 183.199219 281.394531 183.164062 280.980469 C 183.128906 280.566406 183.054688 280.160156 182.941406 279.757812 L 132.542969 91.679688 C 132.390625 91.066406 132.148438 90.492188 131.820312 89.953125 C 131.492188 89.414062 131.089844 88.9375 130.617188 88.519531 C 130.144531 88.101562 129.621094 87.765625 129.046875 87.503906 C 128.472656 87.246094 127.871094 87.078125 127.246094 87 C 126.617188 86.921875 125.996094 86.941406 125.375 87.050781 C 124.753906 87.160156 124.164062 87.363281 123.601562 87.652344 C 123.042969 87.941406 122.539062 88.304688 122.089844 88.75 C 121.636719 89.191406 121.265625 89.6875 120.964844 90.242188 Z M 120.964844 90.242188 " fill-opacity="1" fill-rule="nonzero"/></g></g><g clip-path="url(#1f4850c7e0)"><g clip-path="url(#8fb6f0a840)"><path fill="#004aad" d="M 217.289062 109.054688 C 217.375 109.863281 217.308594 110.65625 217.085938 111.4375 C 216.863281 112.222656 216.503906 112.933594 216.003906 113.574219 L 98.550781 268.878906 C 98.304688 269.214844 98.03125 269.523438 97.722656 269.804688 C 97.417969 270.089844 97.085938 270.335938 96.730469 270.554688 C 96.375 270.769531 96 270.949219 95.609375 271.089844 C 95.21875 271.230469 94.816406 271.332031 94.40625 271.394531 C 93.992188 271.457031 93.578125 271.476562 93.164062 271.453125 C 92.746094 271.433594 92.339844 271.371094 91.933594 271.269531 C 91.53125 271.164062 91.140625 271.023438 90.765625 270.84375 C 90.390625 270.664062 90.039062 270.445312 89.707031 270.195312 C 89.375 269.945312 89.070312 269.664062 88.792969 269.351562 C 88.519531 269.039062 88.277344 268.703125 88.066406 268.34375 C 87.859375 267.984375 87.6875 267.605469 87.554688 267.210938 C 87.417969 266.816406 87.328125 266.414062 87.273438 266 C 87.21875 265.589844 87.207031 265.175781 87.238281 264.757812 C 87.269531 264.34375 87.339844 263.933594 87.449219 263.535156 C 87.558594 263.132812 87.710938 262.746094 87.898438 262.375 C 88.085938 262.003906 88.308594 261.65625 88.566406 261.328125 L 206.019531 106.027344 C 206.394531 105.515625 206.835938 105.074219 207.339844 104.699219 C 207.847656 104.324219 208.398438 104.03125 208.992188 103.824219 C 209.589844 103.617188 210.203125 103.5 210.832031 103.476562 C 211.460938 103.453125 212.082031 103.523438 212.691406 103.683594 C 213.300781 103.847656 213.871094 104.097656 214.402344 104.433594 C 214.9375 104.773438 215.410156 105.179688 215.820312 105.65625 C 216.230469 106.136719 216.558594 106.664062 216.808594 107.246094 C 217.0625 107.824219 217.21875 108.425781 217.289062 109.054688 Z M 217.289062 109.054688 " fill-opacity="1" fill-rule="nonzero"/></g></g></svg>