<svg xmlns="http://www.w3.org/2000/svg" xmlns:xlink="http://www.w3.org/1999/xlink" width="500" zoomAndPan="magnify" viewBox="0 0 375 374.999991" height="500" preserveAspectRatio="xMidYMid meet" version="1.0"><defs><clipPath id="0e7195747f"><path d="M 58.671875 134.554688 L 185.097656 134.554688 L 185.097656 160.472656 L 58.671875 160.472656 Z M 58.671875 134.554688 " clip-rule="nonzero"/></clipPath><clipPath id="31e2426059"><path d="M 45.722656 205.328125 L 172.148438 205.328125 L 172.148438 231.246094 L 45.722656 231.246094 Z M 45.722656 205.328125 " clip-rule="nonzero"/></clipPath><clipPath id="274b33032a"><path d="M 0 74.023438 L 126 74.023438 L 126 301.273438 L 0 301.273438 Z M 0 74.023438 " clip-rule="nonzero"/></clipPath><clipPath id="d2758a9476"><path d="M 277.882812 246.234375 L 117.382812 -31.761719 L -160.613281 128.738281 L -0.113281 406.734375 Z M 277.882812 246.234375 " clip-rule="nonzero"/></clipPath><clipPath id="701c911f73"><path d="M 105 74.023438 L 240 74.023438 L 240 301.273438 L 105 301.273438 Z M 105 74.023438 " clip-rule="nonzero"/></clipPath><clipPath id="9979956710"><path d="M 391.359375 246.234375 L 230.859375 -31.761719 L -47.136719 128.738281 L 113.363281 406.734375 Z M 391.359375 246.234375 " clip-rule="nonzero"/></clipPath><clipPath id="284e1ca2ae"><path d="M 194 74.023438 L 328 74.023438 L 328 301.273438 L 194 301.273438 Z M 194 74.023438 " clip-rule="nonzero"/></clipPath><clipPath id="f84a564d73"><path d="M 42.300781 246.234375 L 202.800781 -31.761719 L 480.796875 128.738281 L 320.296875 406.734375 Z M 42.300781 246.234375 " clip-rule="nonzero"/></clipPath><clipPath id="884194579c"><path d="M 148.042969 74.023438 L 375 74.023438 L 375 301.273438 L 148.042969 301.273438 Z M 148.042969 74.023438 " clip-rule="nonzero"/></clipPath><clipPath id="a747c39e20"><path d="M 442.527344 324.390625 L 398.40625 6.4375 L 80.453125 50.558594 L 124.574219 368.511719 Z M 442.527344 324.390625 " clip-rule="nonzero"/></clipPath></defs><g clip-path="url(#0e7195747f)"><path fill="#222222" d="M 58.671875 134.554688 L 185.121094 134.554688 L 185.121094 160.472656 L 58.671875 160.472656 Z M 58.671875 134.554688 " fill-opacity="1" fill-rule="nonzero"/></g><g clip-path="url(#31e2426059)"><path fill="#222222" d="M 45.722656 205.328125 L 172.171875 205.328125 L 172.171875 231.246094 L 45.722656 231.246094 Z M 45.722656 205.328125 " fill-opacity="1" fill-rule="nonzero"/></g><g clip-path="url(#274b33032a)"><g clip-path="url(#d2758a9476)"><path fill="#222222" d="M 124.367188 -18.59375 C 125.183594 -17.078125 125.683594 -15.460938 125.871094 -13.746094 C 126.058594 -12.035156 125.917969 -10.347656 125.449219 -8.691406 L 18.652344 389.882812 C 18.441406 390.738281 18.144531 391.566406 17.769531 392.363281 C 17.394531 393.164062 16.941406 393.914062 16.417969 394.625 C 15.890625 395.332031 15.300781 395.980469 14.644531 396.570312 C 13.988281 397.160156 13.28125 397.679688 12.519531 398.128906 C 11.761719 398.578125 10.964844 398.949219 10.132812 399.238281 C 9.296875 399.527344 8.445312 399.730469 7.570312 399.851562 C 6.695312 399.972656 5.820312 400.003906 4.9375 399.949219 C 4.058594 399.894531 3.191406 399.75 2.339844 399.523438 C 1.488281 399.292969 0.664062 398.984375 -0.125 398.589844 C -0.914062 398.199219 -1.660156 397.734375 -2.355469 397.191406 C -3.054688 396.652344 -3.691406 396.046875 -4.265625 395.378906 C -4.84375 394.710938 -5.347656 393.992188 -5.78125 393.226562 C -6.214844 392.457031 -6.566406 391.652344 -6.839844 390.8125 C -7.113281 389.976562 -7.300781 389.117188 -7.402344 388.242188 C -7.503906 387.363281 -7.519531 386.488281 -7.445312 385.609375 C -7.371094 384.730469 -7.214844 383.867188 -6.96875 383.019531 L 99.828125 -15.554688 C 99.992188 -16.199219 100.203125 -16.828125 100.460938 -17.441406 C 100.71875 -18.050781 101.019531 -18.640625 101.363281 -19.210938 C 101.710938 -19.777344 102.097656 -20.316406 102.523438 -20.824219 C 102.949219 -21.332031 103.414062 -21.808594 103.910156 -22.246094 C 104.410156 -22.6875 104.9375 -23.085938 105.496094 -23.449219 C 106.054688 -23.808594 106.636719 -24.125 107.242188 -24.398438 C 107.847656 -24.671875 108.46875 -24.894531 109.109375 -25.074219 C 109.75 -25.253906 110.398438 -25.386719 111.058594 -25.46875 C 111.71875 -25.550781 112.378906 -25.582031 113.042969 -25.5625 C 113.707031 -25.546875 114.367188 -25.476562 115.019531 -25.359375 C 115.675781 -25.246094 116.316406 -25.078125 116.945312 -24.867188 C 117.574219 -24.652344 118.183594 -24.394531 118.773438 -24.089844 C 119.367188 -23.785156 119.929688 -23.4375 120.46875 -23.046875 C 121.007812 -22.65625 121.511719 -22.230469 121.984375 -21.765625 C 122.460938 -21.296875 122.894531 -20.800781 123.296875 -20.269531 C 123.695312 -19.738281 124.050781 -19.179688 124.367188 -18.59375 Z M 124.367188 -18.59375 " fill-opacity="1" fill-rule="nonzero"/></g></g><g clip-path="url(#701c911f73)"><g clip-path="url(#9979956710)"><path fill="#222222" d="M 237.84375 -18.59375 C 238.660156 -17.078125 239.164062 -15.460938 239.351562 -13.746094 C 239.539062 -12.035156 239.394531 -10.347656 238.925781 -8.691406 L 132.128906 389.882812 C 131.917969 390.738281 131.625 391.566406 131.246094 392.363281 C 130.871094 393.164062 130.421875 393.914062 129.894531 394.625 C 129.367188 395.332031 128.777344 395.980469 128.121094 396.570312 C 127.464844 397.160156 126.757812 397.679688 125.996094 398.128906 C 125.238281 398.578125 124.441406 398.949219 123.609375 399.238281 C 122.773438 399.527344 121.921875 399.730469 121.046875 399.851562 C 120.171875 399.972656 119.296875 400.003906 118.414062 399.949219 C 117.535156 399.894531 116.667969 399.75 115.816406 399.523438 C 114.964844 399.292969 114.144531 398.984375 113.351562 398.589844 C 112.5625 398.199219 111.820312 397.734375 111.121094 397.191406 C 110.425781 396.652344 109.789062 396.046875 109.210938 395.378906 C 108.632812 394.710938 108.128906 393.992188 107.695312 393.226562 C 107.261719 392.457031 106.910156 391.652344 106.636719 390.8125 C 106.363281 389.976562 106.175781 389.117188 106.074219 388.242188 C 105.972656 387.363281 105.957031 386.488281 106.03125 385.609375 C 106.105469 384.730469 106.265625 383.867188 106.511719 383.019531 L 213.308594 -15.554688 C 213.46875 -16.199219 213.679688 -16.828125 213.9375 -17.441406 C 214.195312 -18.050781 214.496094 -18.640625 214.84375 -19.210938 C 215.1875 -19.777344 215.574219 -20.316406 216 -20.824219 C 216.429688 -21.332031 216.890625 -21.808594 217.386719 -22.246094 C 217.886719 -22.6875 218.414062 -23.085938 218.972656 -23.449219 C 219.53125 -23.808594 220.113281 -24.125 220.71875 -24.398438 C 221.324219 -24.671875 221.949219 -24.894531 222.585938 -25.074219 C 223.226562 -25.253906 223.875 -25.386719 224.535156 -25.46875 C 225.195312 -25.550781 225.855469 -25.582031 226.519531 -25.5625 C 227.183594 -25.546875 227.84375 -25.476562 228.5 -25.359375 C 229.152344 -25.246094 229.792969 -25.078125 230.421875 -24.867188 C 231.050781 -24.652344 231.664062 -24.394531 232.253906 -24.089844 C 232.84375 -23.785156 233.40625 -23.4375 233.945312 -23.046875 C 234.484375 -22.65625 234.988281 -22.230469 235.464844 -21.765625 C 235.9375 -21.296875 236.375 -20.800781 236.773438 -20.269531 C 237.171875 -19.738281 237.527344 -19.179688 237.84375 -18.59375 Z M 237.84375 -18.59375 " fill-opacity="1" fill-rule="nonzero"/></g></g><g clip-path="url(#284e1ca2ae)"><g clip-path="url(#f84a564d73)"><path fill="#004aad" d="M 195.816406 -18.59375 C 195 -17.078125 194.5 -15.460938 194.3125 -13.746094 C 194.125 -12.035156 194.265625 -10.347656 194.734375 -8.691406 L 301.53125 389.882812 C 301.742188 390.738281 302.039062 391.566406 302.414062 392.363281 C 302.789062 393.164062 303.242188 393.914062 303.765625 394.625 C 304.292969 395.332031 304.882812 395.980469 305.539062 396.570312 C 306.195312 397.160156 306.902344 397.679688 307.664062 398.128906 C 308.421875 398.578125 309.21875 398.949219 310.050781 399.238281 C 310.886719 399.527344 311.738281 399.730469 312.613281 399.851562 C 313.488281 399.972656 314.363281 400.003906 315.246094 399.949219 C 316.125 399.894531 316.992188 399.75 317.84375 399.523438 C 318.695312 399.292969 319.519531 398.984375 320.308594 398.589844 C 321.097656 398.199219 321.84375 397.734375 322.539062 397.191406 C 323.238281 396.652344 323.875 396.046875 324.449219 395.378906 C 325.027344 394.710938 325.53125 393.992188 325.964844 393.226562 C 326.398438 392.457031 326.753906 391.652344 327.023438 390.8125 C 327.296875 389.976562 327.484375 389.117188 327.585938 388.242188 C 327.6875 387.363281 327.703125 386.488281 327.628906 385.609375 C 327.554688 384.730469 327.398438 383.867188 327.152344 383.019531 L 220.355469 -15.554688 C 220.191406 -16.199219 219.980469 -16.828125 219.722656 -17.441406 C 219.464844 -18.050781 219.164062 -18.640625 218.820312 -19.210938 C 218.472656 -19.777344 218.085938 -20.316406 217.660156 -20.824219 C 217.234375 -21.332031 216.769531 -21.808594 216.273438 -22.246094 C 215.773438 -22.6875 215.246094 -23.085938 214.6875 -23.449219 C 214.128906 -23.808594 213.546875 -24.125 212.941406 -24.398438 C 212.335938 -24.671875 211.714844 -24.894531 211.074219 -25.074219 C 210.433594 -25.253906 209.785156 -25.386719 209.125 -25.46875 C 208.464844 -25.550781 207.804688 -25.582031 207.140625 -25.5625 C 206.476562 -25.546875 205.816406 -25.476562 205.164062 -25.359375 C 204.507812 -25.246094 203.867188 -25.078125 203.238281 -24.867188 C 202.609375 -24.652344 202 -24.394531 201.410156 -24.089844 C 200.816406 -23.785156 200.253906 -23.4375 199.714844 -23.046875 C 199.175781 -22.65625 198.671875 -22.230469 198.199219 -21.765625 C 197.722656 -21.296875 197.289062 -20.800781 196.886719 -20.269531 C 196.488281 -19.738281 196.132812 -19.179688 195.816406 -18.59375 Z M 195.816406 -18.59375 " fill-opacity="1" fill-rule="nonzero"/></g></g><g clip-path="url(#884194579c)"><g clip-path="url(#a747c39e20)"><path fill="#004aad" d="M 399.925781 21.265625 C 400.113281 22.980469 399.96875 24.664062 399.5 26.324219 C 399.027344 27.980469 398.261719 29.488281 397.203125 30.847656 L 148.300781 359.957031 C 147.78125 360.671875 147.199219 361.328125 146.550781 361.925781 C 145.902344 362.523438 145.199219 363.050781 144.445312 363.511719 C 143.691406 363.96875 142.898438 364.347656 142.070312 364.648438 C 141.238281 364.949219 140.390625 365.164062 139.515625 365.292969 C 138.644531 365.421875 137.765625 365.464844 136.886719 365.421875 C 136.003906 365.375 135.136719 365.246094 134.28125 365.027344 C 133.425781 364.808594 132.601562 364.507812 131.808594 364.125 C 131.011719 363.742188 130.261719 363.285156 129.558594 362.753906 C 128.855469 362.222656 128.210938 361.625 127.625 360.964844 C 127.042969 360.304688 126.527344 359.589844 126.085938 358.828125 C 125.644531 358.0625 125.28125 357.265625 124.996094 356.429688 C 124.714844 355.59375 124.515625 354.738281 124.402344 353.863281 C 124.292969 352.988281 124.265625 352.109375 124.328125 351.230469 C 124.390625 350.351562 124.542969 349.484375 124.777344 348.636719 C 125.011719 347.785156 125.328125 346.964844 125.726562 346.179688 C 126.125 345.390625 126.597656 344.652344 127.144531 343.960938 L 376.050781 14.851562 C 376.441406 14.316406 376.875 13.8125 377.34375 13.339844 C 377.8125 12.871094 378.3125 12.4375 378.847656 12.042969 C 379.378906 11.644531 379.941406 11.292969 380.527344 10.980469 C 381.113281 10.671875 381.722656 10.40625 382.347656 10.183594 C 382.976562 9.964844 383.613281 9.792969 384.269531 9.667969 C 384.921875 9.546875 385.578125 9.472656 386.242188 9.445312 C 386.90625 9.421875 387.570312 9.445312 388.230469 9.519531 C 388.890625 9.59375 389.539062 9.71875 390.183594 9.890625 C 390.824219 10.0625 391.449219 10.28125 392.058594 10.550781 C 392.667969 10.816406 393.25 11.125 393.8125 11.480469 C 394.375 11.835938 394.90625 12.226562 395.410156 12.664062 C 395.914062 13.097656 396.382812 13.566406 396.8125 14.070312 C 397.246094 14.574219 397.636719 15.109375 397.988281 15.671875 C 398.339844 16.238281 398.648438 16.824219 398.914062 17.433594 C 399.175781 18.042969 399.394531 18.667969 399.5625 19.3125 C 399.734375 19.953125 399.855469 20.605469 399.925781 21.265625 Z M 399.925781 21.265625 " fill-opacity="1" fill-rule="nonzero"/></g></g></svg>